STARTFONT 2.1
FONT -artwiz-aqui-bold-r-bold--11-110-75-75-p-100-ISO8859-1
SIZE 11 75 75
FONTBOUNDINGBOX 12 13 0 -3
STARTPROPERTIES 27
FONTNAME_REGISTRY ""
FOUNDRY "artwiz"
FAMILY_NAME "aqui"
WEIGHT_NAME "bold"
SLANT "r"
SETWIDTH_NAME "normal"
ADD_STYLE_NAME ""
PIXEL_SIZE 11
POINT_SIZE 110
RESOLUTION_X 75
RESOLUTION_Y 75
SPACING "p"
AVERAGE_WIDTH 100
CHARSET_REGISTRY "ISO8859"
CHARSET_ENCODING "1"
COPYRIGHT "artwiz, latin1 and bold chars by Sergio Martins"
FACE_NAME "aqui"
WEIGHT 10
RESOLUTION 99
X_HEIGHT 9
QUAD_WIDTH 7
_XMBDFED_INFO "Edited with xmbdfed 4.7."
DEFAULT_CHAR 63
FONT_ASCENT 10
FONT_DESCENT 3
_ORIGINAL_FONT_NAME "aqui"
_GBDFED_INFO "Edited with gbdfed 1.1."
ENDPROPERTIES
CHARS 190
STARTCHAR char32
ENCODING 32
SWIDTH 785 0
DWIDTH 9 0
BBX 0 0 0 0
BITMAP
ENDCHAR
STARTCHAR char33
ENCODING 33
SWIDTH 436 0
DWIDTH 5 0
BBX 3 10 1 -1
BITMAP
E0
E0
E0
E0
E0
E0
E0
00
E0
E0
ENDCHAR
STARTCHAR char34
ENCODING 34
SWIDTH 610 0
DWIDTH 7 0
BBX 5 4 1 5
BITMAP
D8
D8
D8
D8
ENDCHAR
STARTCHAR char35
ENCODING 35
SWIDTH 872 0
DWIDTH 10 0
BBX 8 7 1 0
BITMAP
66
66
FF
7E
FF
66
66
ENDCHAR
STARTCHAR char36
ENCODING 36
SWIDTH 785 0
DWIDTH 9 0
BBX 7 9 1 -1
BITMAP
18
7E
F8
F8
7C
3E
3E
FC
30
ENDCHAR
STARTCHAR char37
ENCODING 37
SWIDTH 960 0
DWIDTH 11 0
BBX 10 7 0 0
BITMAP
7180
FB00
7600
0C00
1B80
37C0
6380
ENDCHAR
STARTCHAR char38
ENCODING 38
SWIDTH 872 0
DWIDTH 10 0
BBX 8 8 1 0
BITMAP
78
CC
CC
78
FF
CC
CC
7F
ENDCHAR
STARTCHAR char39
ENCODING 39
SWIDTH 436 0
DWIDTH 5 0
BBX 3 4 1 5
BITMAP
E0
E0
60
C0
ENDCHAR
STARTCHAR char40
ENCODING 40
SWIDTH 436 0
DWIDTH 5 0
BBX 4 11 1 -2
BITMAP
70
E0
E0
E0
E0
E0
E0
E0
E0
E0
70
ENDCHAR
STARTCHAR char41
ENCODING 41
SWIDTH 436 0
DWIDTH 5 0
BBX 4 11 1 -2
BITMAP
E0
70
70
70
70
70
70
70
70
70
E0
ENDCHAR
STARTCHAR char42
ENCODING 42
SWIDTH 523 0
DWIDTH 6 0
BBX 5 5 1 1
BITMAP
D8
70
F8
70
D8
ENDCHAR
STARTCHAR char43
ENCODING 43
SWIDTH 698 0
DWIDTH 8 0
BBX 6 5 1 1
BITMAP
30
30
FC
30
30
ENDCHAR
STARTCHAR char44
ENCODING 44
SWIDTH 436 0
DWIDTH 5 0
BBX 3 4 1 -2
BITMAP
E0
E0
60
C0
ENDCHAR
STARTCHAR char45
ENCODING 45
SWIDTH 698 0
DWIDTH 8 0
BBX 6 2 1 3
BITMAP
FC
FC
ENDCHAR
STARTCHAR char46
ENCODING 46
SWIDTH 436 0
DWIDTH 5 0
BBX 3 2 1 0
BITMAP
E0
E0
ENDCHAR
STARTCHAR char47
ENCODING 47
SWIDTH 785 0
DWIDTH 9 0
BBX 7 10 1 -1
BITMAP
0E
0E
1C
1C
38
38
70
70
E0
E0
ENDCHAR
STARTCHAR char48
ENCODING 48
SWIDTH 698 0
DWIDTH 8 0
BBX 7 8 1 0
BITMAP
7C
EE
EE
EE
EE
EE
EE
7C
ENDCHAR
STARTCHAR char49
ENCODING 49
SWIDTH 523 0
DWIDTH 6 0
BBX 4 8 1 0
BITMAP
F0
70
70
70
70
70
70
70
ENDCHAR
STARTCHAR char50
ENCODING 50
SWIDTH 785 0
DWIDTH 9 0
BBX 7 8 1 0
BITMAP
7C
CE
0E
1C
38
70
E0
FE
ENDCHAR
STARTCHAR char51
ENCODING 51
SWIDTH 698 0
DWIDTH 8 0
BBX 7 8 1 0
BITMAP
FC
0E
0E
7C
0E
0E
0E
FC
ENDCHAR
STARTCHAR char52
ENCODING 52
SWIDTH 785 0
DWIDTH 9 0
BBX 7 8 1 0
BITMAP
EE
EE
EE
EE
7E
0E
0E
0E
ENDCHAR
STARTCHAR char53
ENCODING 53
SWIDTH 785 0
DWIDTH 9 0
BBX 7 8 1 0
BITMAP
FE
E0
E0
FC
0E
0E
CE
7C
ENDCHAR
STARTCHAR char54
ENCODING 54
SWIDTH 785 0
DWIDTH 9 0
BBX 7 8 1 0
BITMAP
7C
E0
E0
FC
EE
EE
EE
7C
ENDCHAR
STARTCHAR char55
ENCODING 55
SWIDTH 785 0
DWIDTH 9 0
BBX 7 8 1 0
BITMAP
FE
0E
0E
1C
1C
38
38
38
ENDCHAR
STARTCHAR char56
ENCODING 56
SWIDTH 785 0
DWIDTH 9 0
BBX 7 8 1 0
BITMAP
7C
EE
EE
7C
EE
EE
EE
7C
ENDCHAR
STARTCHAR char57
ENCODING 57
SWIDTH 785 0
DWIDTH 9 0
BBX 7 8 1 0
BITMAP
7C
EE
EE
EE
7E
0E
0E
3C
ENDCHAR
STARTCHAR char58
ENCODING 58
SWIDTH 436 0
DWIDTH 5 0
BBX 3 7 1 0
BITMAP
E0
E0
00
00
00
E0
E0
ENDCHAR
STARTCHAR char59
ENCODING 59
SWIDTH 436 0
DWIDTH 5 0
BBX 3 9 1 -2
BITMAP
E0
E0
00
00
00
E0
E0
60
C0
ENDCHAR
STARTCHAR char60
ENCODING 60
SWIDTH 698 0
DWIDTH 8 0
BBX 6 7 1 0
BITMAP
1C
38
70
E0
70
38
1C
ENDCHAR
STARTCHAR char61
ENCODING 61
SWIDTH 698 0
DWIDTH 8 0
BBX 6 5 1 1
BITMAP
FC
FC
00
FC
FC
ENDCHAR
STARTCHAR char62
ENCODING 62
SWIDTH 698 0
DWIDTH 8 0
BBX 6 7 1 0
BITMAP
E0
70
38
1C
38
70
E0
ENDCHAR
STARTCHAR char63
ENCODING 63
SWIDTH 785 0
DWIDTH 9 0
BBX 7 8 1 0
BITMAP
FC
0E
0E
1C
38
38
00
38
ENDCHAR
STARTCHAR char64
ENCODING 64
SWIDTH 785 0
DWIDTH 9 0
BBX 7 7 1 0
BITMAP
7C
EE
EE
FE
FE
E0
7E
ENDCHAR
STARTCHAR char65
ENCODING 65
SWIDTH 785 0
DWIDTH 9 0
BBX 7 8 1 0
BITMAP
7C
EE
EE
EE
FE
EE
EE
EE
ENDCHAR
STARTCHAR char66
ENCODING 66
SWIDTH 785 0
DWIDTH 9 0
BBX 7 8 1 0
BITMAP
FC
EE
EE
FC
EE
EE
EE
FC
ENDCHAR
STARTCHAR char67
ENCODING 67
SWIDTH 785 0
DWIDTH 9 0
BBX 7 8 1 0
BITMAP
7C
E6
E0
E0
E0
E0
E6
7C
ENDCHAR
STARTCHAR char68
ENCODING 68
SWIDTH 785 0
DWIDTH 9 0
BBX 7 8 1 0
BITMAP
FC
EE
EE
EE
EE
EE
EE
FC
ENDCHAR
STARTCHAR char69
ENCODING 69
SWIDTH 785 0
DWIDTH 9 0
BBX 7 8 1 0
BITMAP
FE
E0
E0
FC
E0
E0
E0
FE
ENDCHAR
STARTCHAR char70
ENCODING 70
SWIDTH 785 0
DWIDTH 9 0
BBX 7 8 1 0
BITMAP
FE
E0
E0
FC
E0
E0
E0
E0
ENDCHAR
STARTCHAR char71
ENCODING 71
SWIDTH 785 0
DWIDTH 9 0
BBX 7 8 1 0
BITMAP
7C
E0
E0
FE
EE
EE
EE
7C
ENDCHAR
STARTCHAR char72
ENCODING 72
SWIDTH 785 0
DWIDTH 9 0
BBX 7 8 1 0
BITMAP
EE
EE
EE
FE
EE
EE
EE
EE
ENDCHAR
STARTCHAR char73
ENCODING 73
SWIDTH 610 0
DWIDTH 7 0
BBX 5 8 1 0
BITMAP
F8
70
70
70
70
70
70
F8
ENDCHAR
STARTCHAR char74
ENCODING 74
SWIDTH 785 0
DWIDTH 9 0
BBX 7 8 1 0
BITMAP
0E
0E
0E
0E
0E
0E
EE
7C
ENDCHAR
STARTCHAR char75
ENCODING 75
SWIDTH 785 0
DWIDTH 9 0
BBX 7 8 1 0
BITMAP
EE
EE
EE
FC
EE
EE
EE
EE
ENDCHAR
STARTCHAR char76
ENCODING 76
SWIDTH 785 0
DWIDTH 9 0
BBX 7 8 1 0
BITMAP
E0
E0
E0
E0
E0
E0
E0
FE
ENDCHAR
STARTCHAR char77
ENCODING 77
SWIDTH 1134 0
DWIDTH 13 0
BBX 11 8 1 0
BITMAP
FFC0
EEE0
EEE0
EEE0
EEE0
EEE0
EEE0
EEE0
ENDCHAR
STARTCHAR char78
ENCODING 78
SWIDTH 785 0
DWIDTH 9 0
BBX 7 8 1 0
BITMAP
FC
EE
EE
EE
EE
EE
EE
EE
ENDCHAR
STARTCHAR char79
ENCODING 79
SWIDTH 785 0
DWIDTH 9 0
BBX 7 8 1 0
BITMAP
7C
EE
EE
EE
EE
EE
EE
7C
ENDCHAR
STARTCHAR char80
ENCODING 80
SWIDTH 785 0
DWIDTH 9 0
BBX 7 8 1 0
BITMAP
FC
EE
EE
EE
FC
E0
E0
E0
ENDCHAR
STARTCHAR char81
ENCODING 81
SWIDTH 785 0
DWIDTH 9 0
BBX 7 9 1 -1
BITMAP
7C
EE
EE
EE
EE
EE
EE
7C
1E
ENDCHAR
STARTCHAR char82
ENCODING 82
SWIDTH 785 0
DWIDTH 9 0
BBX 7 8 1 0
BITMAP
FC
EE
EE
FC
EE
EE
EE
EE
ENDCHAR
STARTCHAR char83
ENCODING 83
SWIDTH 785 0
DWIDTH 9 0
BBX 7 8 1 0
BITMAP
7E
E0
F0
78
3C
1E
0E
FC
ENDCHAR
STARTCHAR char84
ENCODING 84
SWIDTH 785 0
DWIDTH 9 0
BBX 7 8 1 0
BITMAP
FE
38
38
38
38
38
38
38
ENDCHAR
STARTCHAR char85
ENCODING 85
SWIDTH 785 0
DWIDTH 9 0
BBX 7 8 1 0
BITMAP
EE
EE
EE
EE
EE
EE
EE
7E
ENDCHAR
STARTCHAR char86
ENCODING 86
SWIDTH 785 0
DWIDTH 9 0
BBX 7 8 1 0
BITMAP
EE
EE
EE
EE
EE
FC
F8
F0
ENDCHAR
STARTCHAR char87
ENCODING 87
SWIDTH 1134 0
DWIDTH 13 0
BBX 11 8 1 0
BITMAP
EEE0
EEE0
EEE0
EEE0
EEE0
EEE0
EEE0
7FC0
ENDCHAR
STARTCHAR char88
ENCODING 88
SWIDTH 785 0
DWIDTH 9 0
BBX 7 8 1 0
BITMAP
EE
EE
EE
7C
EE
EE
EE
EE
ENDCHAR
STARTCHAR char89
ENCODING 89
SWIDTH 785 0
DWIDTH 9 0
BBX 7 8 1 0
BITMAP
EE
EE
7C
38
38
38
38
38
ENDCHAR
STARTCHAR char90
ENCODING 90
SWIDTH 785 0
DWIDTH 9 0
BBX 7 8 1 0
BITMAP
FE
0E
1E
3C
78
F0
E0
FE
ENDCHAR
STARTCHAR char91
ENCODING 91
SWIDTH 610 0
DWIDTH 7 0
BBX 5 11 1 -2
BITMAP
F8
E0
E0
E0
E0
E0
E0
E0
E0
E0
F8
ENDCHAR
STARTCHAR char92
ENCODING 92
SWIDTH 785 0
DWIDTH 9 0
BBX 7 10 1 -1
BITMAP
E0
E0
70
70
38
38
1C
1C
0E
0E
ENDCHAR
STARTCHAR char93
ENCODING 93
SWIDTH 610 0
DWIDTH 7 0
BBX 5 11 1 -2
BITMAP
F8
38
38
38
38
38
38
38
38
38
F8
ENDCHAR
STARTCHAR char94
ENCODING 94
SWIDTH 698 0
DWIDTH 8 0
BBX 6 4 1 4
BITMAP
30
78
FC
CC
ENDCHAR
STARTCHAR char95
ENCODING 95
SWIDTH 785 0
DWIDTH 9 0
BBX 7 2 1 -1
BITMAP
FE
FE
ENDCHAR
STARTCHAR char96
ENCODING 96
SWIDTH 436 0
DWIDTH 5 0
BBX 3 4 1 5
BITMAP
60
C0
E0
E0
ENDCHAR
STARTCHAR char97
ENCODING 97
SWIDTH 785 0
DWIDTH 9 0
BBX 7 7 1 0
BITMAP
7C
0E
7E
EE
EE
EE
7E
ENDCHAR
STARTCHAR char98
ENCODING 98
SWIDTH 785 0
DWIDTH 9 0
BBX 7 9 1 0
BITMAP
E0
E0
FC
EE
EE
EE
EE
EE
FC
ENDCHAR
STARTCHAR char99
ENCODING 99
SWIDTH 698 0
DWIDTH 8 0
BBX 6 7 1 0
BITMAP
7C
EC
E0
E0
E0
E0
7C
ENDCHAR
STARTCHAR char100
ENCODING 100
SWIDTH 785 0
DWIDTH 9 0
BBX 7 9 1 0
BITMAP
0E
0E
7E
EE
EE
EE
EE
EE
7E
ENDCHAR
STARTCHAR char101
ENCODING 101
SWIDTH 785 0
DWIDTH 9 0
BBX 7 7 1 0
BITMAP
7C
EE
EE
FE
E0
E0
7E
ENDCHAR
STARTCHAR char102
ENCODING 102
SWIDTH 698 0
DWIDTH 8 0
BBX 6 9 1 0
BITMAP
3C
70
FC
70
70
70
70
70
70
ENDCHAR
STARTCHAR char103
ENCODING 103
SWIDTH 785 0
DWIDTH 9 0
BBX 7 10 1 -3
BITMAP
7E
EE
EE
EE
EE
EE
7E
0E
0E
7C
ENDCHAR
STARTCHAR char104
ENCODING 104
SWIDTH 785 0
DWIDTH 9 0
BBX 7 9 1 0
BITMAP
E0
E0
FC
EE
EE
EE
EE
EE
EE
ENDCHAR
STARTCHAR char105
ENCODING 105
SWIDTH 436 0
DWIDTH 5 0
BBX 3 9 1 0
BITMAP
E0
00
E0
E0
E0
E0
E0
E0
E0
ENDCHAR
STARTCHAR char106
ENCODING 106
SWIDTH 523 0
DWIDTH 6 0
BBX 5 11 0 -2
BITMAP
38
00
38
38
38
38
38
38
38
38
F0
ENDCHAR
STARTCHAR char107
ENCODING 107
SWIDTH 785 0
DWIDTH 9 0
BBX 7 9 1 0
BITMAP
E0
E0
EE
EE
EE
FC
EE
EE
EE
ENDCHAR
STARTCHAR char108
ENCODING 108
SWIDTH 436 0
DWIDTH 5 0
BBX 3 9 1 0
BITMAP
E0
E0
E0
E0
E0
E0
E0
E0
E0
ENDCHAR
STARTCHAR char109
ENCODING 109
SWIDTH 1134 0
DWIDTH 13 0
BBX 11 7 1 0
BITMAP
FFC0
EEE0
EEE0
EEE0
EEE0
EEE0
EEE0
ENDCHAR
STARTCHAR char110
ENCODING 110
SWIDTH 785 0
DWIDTH 9 0
BBX 7 7 1 0
BITMAP
FC
EE
EE
EE
EE
EE
EE
ENDCHAR
STARTCHAR char111
ENCODING 111
SWIDTH 785 0
DWIDTH 9 0
BBX 7 7 1 0
BITMAP
7C
EE
EE
EE
EE
EE
7C
ENDCHAR
STARTCHAR char112
ENCODING 112
SWIDTH 785 0
DWIDTH 9 0
BBX 7 10 1 -3
BITMAP
FC
EE
EE
EE
EE
EE
FC
E0
E0
E0
ENDCHAR
STARTCHAR char113
ENCODING 113
SWIDTH 785 0
DWIDTH 9 0
BBX 7 10 1 -3
BITMAP
7E
EE
EE
EE
EE
EE
7E
0E
0E
0E
ENDCHAR
STARTCHAR char114
ENCODING 114
SWIDTH 698 0
DWIDTH 8 0
BBX 6 7 1 0
BITMAP
FC
F0
E0
E0
E0
E0
E0
ENDCHAR
STARTCHAR char115
ENCODING 115
SWIDTH 698 0
DWIDTH 8 0
BBX 6 7 1 0
BITMAP
7C
E0
F0
78
3C
1C
F8
ENDCHAR
STARTCHAR char116
ENCODING 116
SWIDTH 610 0
DWIDTH 7 0
BBX 5 8 1 0
BITMAP
70
F8
70
70
70
70
70
70
ENDCHAR
STARTCHAR char117
ENCODING 117
SWIDTH 785 0
DWIDTH 9 0
BBX 7 7 1 0
BITMAP
EE
EE
EE
EE
EE
EE
7E
ENDCHAR
STARTCHAR char118
ENCODING 118
SWIDTH 785 0
DWIDTH 9 0
BBX 7 7 1 0
BITMAP
EE
EE
EE
EE
FC
F8
F0
ENDCHAR
STARTCHAR char119
ENCODING 119
SWIDTH 1134 0
DWIDTH 13 0
BBX 11 7 1 0
BITMAP
EEE0
EEE0
EEE0
EEE0
EEE0
EEE0
7FC0
ENDCHAR
STARTCHAR char120
ENCODING 120
SWIDTH 785 0
DWIDTH 9 0
BBX 7 7 1 0
BITMAP
EE
EE
EE
7C
EE
EE
EE
ENDCHAR
STARTCHAR char121
ENCODING 121
SWIDTH 785 0
DWIDTH 9 0
BBX 7 10 1 -3
BITMAP
EE
EE
EE
EE
EE
EE
7E
0E
0E
7C
ENDCHAR
STARTCHAR char122
ENCODING 122
SWIDTH 785 0
DWIDTH 9 0
BBX 7 7 1 0
BITMAP
FE
1E
3C
78
F0
E0
FE
ENDCHAR
STARTCHAR char123
ENCODING 123
SWIDTH 523 0
DWIDTH 6 0
BBX 5 11 1 -2
BITMAP
38
70
70
70
30
F0
30
70
70
70
38
ENDCHAR
STARTCHAR char124
ENCODING 124
SWIDTH 436 0
DWIDTH 5 0
BBX 3 10 1 -1
BITMAP
E0
E0
E0
E0
E0
E0
E0
E0
E0
E0
ENDCHAR
STARTCHAR char125
ENCODING 125
SWIDTH 523 0
DWIDTH 6 0
BBX 5 11 1 -2
BITMAP
E0
70
70
70
60
78
60
70
70
70
E0
ENDCHAR
STARTCHAR char126
ENCODING 126
SWIDTH 698 0
DWIDTH 8 0
BBX 6 2 1 5
BITMAP
6C
D8
ENDCHAR
STARTCHAR char141
ENCODING 141
SWIDTH 0 0
DWIDTH 0 0
BBX 0 0 0 0
BITMAP
ENDCHAR
STARTCHAR char33
ENCODING 161
SWIDTH 436 0
DWIDTH 5 0
BBX 3 10 1 -1
BITMAP
E0
E0
00
E0
E0
E0
E0
E0
E0
E0
ENDCHAR
STARTCHAR char99
ENCODING 162
SWIDTH 698 0
DWIDTH 8 0
BBX 6 9 1 -1
BITMAP
0C
7C
D8
D8
D8
D8
D8
7C
30
ENDCHAR
STARTCHAR char102
ENCODING 163
SWIDTH 610 0
DWIDTH 7 0
BBX 6 8 0 0
BITMAP
3C
70
70
FC
70
70
70
FC
ENDCHAR
STARTCHAR char164
ENCODING 164
SWIDTH 698 0
DWIDTH 8 0
BBX 6 5 1 2
BITMAP
CC
78
78
78
CC
ENDCHAR
STARTCHAR char165
ENCODING 165
SWIDTH 785 0
DWIDTH 9 0
BBX 8 8 0 0
BITMAP
E7
7E
7E
18
7E
18
3C
18
ENDCHAR
STARTCHAR char166
ENCODING 166
SWIDTH 610 0
DWIDTH 7 0
BBX 3 8 2 0
BITMAP
E0
E0
E0
00
00
E0
E0
E0
ENDCHAR
STARTCHAR char21
ENCODING 167
SWIDTH 872 0
DWIDTH 10 0
BBX 9 10 0 0
BITMAP
1F00
3B80
7D80
FE00
EF00
7700
3F00
DF00
EE00
7C00
ENDCHAR
STARTCHAR char168
ENCODING 168
SWIDTH 698 0
DWIDTH 8 0
BBX 5 1 2 7
BITMAP
D8
ENDCHAR
STARTCHAR char99
ENCODING 169
SWIDTH 1047 0
DWIDTH 12 0
BBX 10 8 1 0
BITMAP
7F80
E1C0
FFC0
F9C0
F9C0
FFC0
E1C0
7F80
ENDCHAR
STARTCHAR char170
ENCODING 170
SWIDTH 698 0
DWIDTH 8 0
BBX 6 4 1 4
BITMAP
7C
EC
FC
7C
ENDCHAR
STARTCHAR char62
ENCODING 171
SWIDTH 1047 0
DWIDTH 12 0
BBX 10 7 0 0
BITMAP
1DC0
3B80
7700
EE00
7700
3B80
1DC0
ENDCHAR
STARTCHAR char172
ENCODING 172
SWIDTH 698 0
DWIDTH 8 0
BBX 6 3 1 2
BITMAP
FC
FC
0C
ENDCHAR
STARTCHAR char99
ENCODING 174
SWIDTH 1047 0
DWIDTH 12 0
BBX 10 8 1 0
BITMAP
7F80
E1C0
FFC0
F3C0
FDC0
F3C0
E1C0
7F80
ENDCHAR
STARTCHAR char175
ENCODING 175
SWIDTH 872 0
DWIDTH 10 0
BBX 7 2 2 6
BITMAP
FE
FE
ENDCHAR
STARTCHAR char111
ENCODING 176
SWIDTH 698 0
DWIDTH 8 0
BBX 6 4 1 4
BITMAP
78
CC
CC
78
ENDCHAR
STARTCHAR char177
ENCODING 177
SWIDTH 698 0
DWIDTH 8 0
BBX 6 8 1 0
BITMAP
30
30
FC
30
30
00
FC
FC
ENDCHAR
STARTCHAR char178
ENCODING 178
SWIDTH 610 0
DWIDTH 7 0
BBX 6 6 0 2
BITMAP
78
DC
1C
38
70
FC
ENDCHAR
STARTCHAR char51
ENCODING 179
SWIDTH 698 0
DWIDTH 8 0
BBX 6 5 0 3
BITMAP
F8
1C
7C
1C
F8
ENDCHAR
STARTCHAR char180
ENCODING 180
SWIDTH 523 0
DWIDTH 6 0
BBX 4 2 2 5
BITMAP
70
E0
ENDCHAR
STARTCHAR char117
ENCODING 181
SWIDTH 785 0
DWIDTH 9 0
BBX 7 9 1 -2
BITMAP
EE
EE
EE
EE
EE
EE
FC
E0
E0
ENDCHAR
STARTCHAR char113
ENCODING 182
SWIDTH 872 0
DWIDTH 10 0
BBX 9 8 1 0
BITMAP
7F80
EE80
EE80
EE80
EE80
7E80
0E80
0E80
ENDCHAR
STARTCHAR char183
ENCODING 183
SWIDTH 436 0
DWIDTH 5 0
BBX 3 3 3 3
BITMAP
E0
E0
E0
ENDCHAR
STARTCHAR char184
ENCODING 184
SWIDTH 610 0
DWIDTH 7 0
BBX 5 4 2 0
BITMAP
70
38
F8
F8
ENDCHAR
STARTCHAR char185
ENCODING 185
SWIDTH 349 0
DWIDTH 4 0
BBX 4 4 0 3
BITMAP
F0
70
70
70
ENDCHAR
STARTCHAR char111
ENCODING 186
SWIDTH 698 0
DWIDTH 8 0
BBX 6 4 1 4
BITMAP
78
CC
CC
78
ENDCHAR
STARTCHAR char62
ENCODING 187
SWIDTH 1047 0
DWIDTH 12 0
BBX 10 7 0 0
BITMAP
EE00
7700
3B80
1DC0
3B80
7700
EE00
ENDCHAR
STARTCHAR char179
ENCODING 188
SWIDTH 872 0
DWIDTH 10 0
BBX 9 8 0 0
BITMAP
F000
7000
7300
7700
0F00
0B00
0F80
0300
ENDCHAR
STARTCHAR char178
ENCODING 189
SWIDTH 960 0
DWIDTH 11 0
BBX 10 8 0 0
BITMAP
F000
7000
7780
7DC0
01C0
0380
0700
0FC0
ENDCHAR
STARTCHAR char179
ENCODING 190
SWIDTH 960 0
DWIDTH 11 0
BBX 10 9 0 -1
BITMAP
F800
1C00
7C00
1D80
FB80
0780
0580
07C0
0180
ENDCHAR
STARTCHAR char63
ENCODING 191
SWIDTH 785 0
DWIDTH 9 0
BBX 7 8 1 0
BITMAP
38
00
38
38
70
E0
E0
7E
ENDCHAR
STARTCHAR char65
ENCODING 192
SWIDTH 785 0
DWIDTH 9 0
BBX 7 10 1 0
BITMAP
70
38
7C
EE
EE
EE
FE
EE
EE
EE
ENDCHAR
STARTCHAR char65
ENCODING 193
SWIDTH 785 0
DWIDTH 9 0
BBX 7 10 1 0
BITMAP
1C
38
7C
EE
EE
EE
FE
EE
EE
EE
ENDCHAR
STARTCHAR char196
ENCODING 194
SWIDTH 785 0
DWIDTH 9 0
BBX 7 10 1 0
BITMAP
38
6C
00
7C
EE
EE
EE
FE
EE
EE
ENDCHAR
STARTCHAR char196
ENCODING 195
SWIDTH 785 0
DWIDTH 9 0
BBX 7 10 1 0
BITMAP
36
6C
00
7C
EE
EE
EE
FE
EE
EE
ENDCHAR
STARTCHAR char196
ENCODING 196
SWIDTH 785 0
DWIDTH 9 0
BBX 7 9 1 0
BITMAP
C6
7C
EE
EE
EE
FE
EE
EE
EE
ENDCHAR
STARTCHAR char197
ENCODING 197
SWIDTH 785 0
DWIDTH 9 0
BBX 7 10 1 0
BITMAP
10
00
7C
EE
EE
EE
FE
EE
EE
EE
ENDCHAR
STARTCHAR char65
ENCODING 198
SWIDTH 960 0
DWIDTH 11 0
BBX 10 8 1 0
BITMAP
7FC0
EE00
EE00
EF80
FE00
EE00
EE00
EFC0
ENDCHAR
STARTCHAR char67
ENCODING 199
SWIDTH 785 0
DWIDTH 9 0
BBX 7 9 1 -1
BITMAP
7C
E6
E0
E0
E0
E0
FE
7C
18
ENDCHAR
STARTCHAR char69
ENCODING 200
SWIDTH 785 0
DWIDTH 9 0
BBX 7 10 1 0
BITMAP
70
38
FE
E0
E0
FC
E0
E0
E0
FE
ENDCHAR
STARTCHAR char69
ENCODING 201
SWIDTH 785 0
DWIDTH 9 0
BBX 7 10 1 0
BITMAP
1C
38
FE
E0
E0
FC
E0
E0
E0
FE
ENDCHAR
STARTCHAR char69
ENCODING 202
SWIDTH 785 0
DWIDTH 9 0
BBX 7 10 1 0
BITMAP
38
6C
FE
E0
E0
FC
E0
E0
E0
FE
ENDCHAR
STARTCHAR char69
ENCODING 203
SWIDTH 785 0
DWIDTH 9 0
BBX 7 10 1 0
BITMAP
66
00
FE
E0
E0
FC
E0
E0
E0
FE
ENDCHAR
STARTCHAR char73
ENCODING 204
SWIDTH 610 0
DWIDTH 7 0
BBX 5 10 1 0
BITMAP
E0
70
00
F8
70
70
70
70
70
F8
ENDCHAR
STARTCHAR char73
ENCODING 205
SWIDTH 610 0
DWIDTH 7 0
BBX 5 10 1 0
BITMAP
38
70
00
F8
70
70
70
70
70
F8
ENDCHAR
STARTCHAR char73
ENCODING 206
SWIDTH 610 0
DWIDTH 7 0
BBX 5 10 1 0
BITMAP
70
D8
00
F8
70
70
70
70
70
F8
ENDCHAR
STARTCHAR char73
ENCODING 207
SWIDTH 610 0
DWIDTH 7 0
BBX 7 10 0 0
BITMAP
EE
00
7C
38
38
38
38
38
38
7C
ENDCHAR
STARTCHAR char68
ENCODING 208
SWIDTH 698 0
DWIDTH 8 0
BBX 8 8 0 0
BITMAP
7E
77
77
FF
FF
77
77
7E
ENDCHAR
STARTCHAR char110
ENCODING 209
SWIDTH 785 0
DWIDTH 9 0
BBX 7 10 1 0
BITMAP
6C
D8
00
FC
EE
EE
EE
EE
EE
EE
ENDCHAR
STARTCHAR char79
ENCODING 210
SWIDTH 785 0
DWIDTH 9 0
BBX 7 10 1 0
BITMAP
70
38
7C
EE
EE
EE
EE
EE
EE
7C
ENDCHAR
STARTCHAR char79
ENCODING 211
SWIDTH 785 0
DWIDTH 9 0
BBX 7 10 1 0
BITMAP
1C
38
7C
EE
EE
EE
EE
EE
EE
7C
ENDCHAR
STARTCHAR char79
ENCODING 212
SWIDTH 785 0
DWIDTH 9 0
BBX 7 10 1 0
BITMAP
38
6C
00
7C
EE
EE
EE
EE
EE
7C
ENDCHAR
STARTCHAR char214
ENCODING 213
SWIDTH 785 0
DWIDTH 9 0
BBX 7 10 1 0
BITMAP
36
6C
7C
FE
EE
EE
EE
EE
EE
7C
ENDCHAR
STARTCHAR char214
ENCODING 214
SWIDTH 785 0
DWIDTH 9 0
BBX 7 10 1 0
BITMAP
EE
00
7C
EE
EE
EE
EE
EE
EE
7C
ENDCHAR
STARTCHAR char215
ENCODING 215
SWIDTH 523 0
DWIDTH 6 0
BBX 5 4 1 2
BITMAP
D8
70
70
D8
ENDCHAR
STARTCHAR char79
ENCODING 216
SWIDTH 698 0
DWIDTH 8 0
BBX 8 9 0 -1
BITMAP
03
3E
66
5E
7E
7A
66
7C
C0
ENDCHAR
STARTCHAR char85
ENCODING 217
SWIDTH 785 0
DWIDTH 9 0
BBX 7 10 1 0
BITMAP
70
38
EE
EE
EE
EE
EE
EE
EE
7E
ENDCHAR
STARTCHAR char85
ENCODING 218
SWIDTH 785 0
DWIDTH 9 0
BBX 7 10 1 0
BITMAP
1C
38
EE
EE
EE
EE
EE
EE
EE
7E
ENDCHAR
STARTCHAR char85
ENCODING 219
SWIDTH 785 0
DWIDTH 9 0
BBX 7 10 1 0
BITMAP
38
6C
00
EE
EE
EE
EE
EE
EE
7E
ENDCHAR
STARTCHAR char85
ENCODING 220
SWIDTH 785 0
DWIDTH 9 0
BBX 7 10 1 0
BITMAP
66
00
EE
EE
EE
EE
EE
EE
EE
7E
ENDCHAR
STARTCHAR char89
ENCODING 221
SWIDTH 785 0
DWIDTH 9 0
BBX 7 10 1 0
BITMAP
1C
38
00
EE
EE
7C
38
38
38
38
ENDCHAR
STARTCHAR char112
ENCODING 222
SWIDTH 785 0
DWIDTH 9 0
BBX 7 12 1 -3
BITMAP
E0
E0
E0
E0
FC
EE
EE
EE
FC
E0
E0
E0
ENDCHAR
STARTCHAR char223
ENCODING 223
SWIDTH 698 0
DWIDTH 8 0
BBX 8 8 0 0
BITMAP
3C
EE
EE
FC
FE
E7
EF
FE
ENDCHAR
STARTCHAR char228
ENCODING 224
SWIDTH 785 0
DWIDTH 9 0
BBX 7 10 1 0
BITMAP
70
38
00
7C
0E
7E
EE
EE
EE
7E
ENDCHAR
STARTCHAR char228
ENCODING 225
SWIDTH 785 0
DWIDTH 9 0
BBX 7 10 1 0
BITMAP
1C
38
00
7C
0E
7E
EE
EE
EE
7E
ENDCHAR
STARTCHAR char228
ENCODING 226
SWIDTH 785 0
DWIDTH 9 0
BBX 7 10 1 0
BITMAP
38
6C
00
7C
0E
7E
EE
EE
EE
7E
ENDCHAR
STARTCHAR char228
ENCODING 227
SWIDTH 785 0
DWIDTH 9 0
BBX 7 10 1 0
BITMAP
36
6C
00
7C
0E
7E
EE
EE
EE
7E
ENDCHAR
STARTCHAR char228
ENCODING 228
SWIDTH 785 0
DWIDTH 9 0
BBX 7 9 1 0
BITMAP
6C
00
7C
0E
7E
EE
EE
EE
7E
ENDCHAR
STARTCHAR char229
ENCODING 229
SWIDTH 785 0
DWIDTH 9 0
BBX 7 9 1 0
BITMAP
10
00
7C
0E
7E
EE
EE
EE
7E
ENDCHAR
STARTCHAR char97
ENCODING 230
SWIDTH 1047 0
DWIDTH 12 0
BBX 11 7 1 0
BITMAP
7FC0
0EE0
7EE0
EFE0
EE00
EE00
7FE0
ENDCHAR
STARTCHAR char99
ENCODING 231
SWIDTH 698 0
DWIDTH 8 0
BBX 6 8 1 -1
BITMAP
7C
EC
E0
E0
E0
F8
7C
18
ENDCHAR
STARTCHAR char101
ENCODING 232
SWIDTH 785 0
DWIDTH 9 0
BBX 7 10 1 0
BITMAP
70
38
00
7C
EE
EE
FE
E0
E0
7E
ENDCHAR
STARTCHAR char101
ENCODING 233
SWIDTH 785 0
DWIDTH 9 0
BBX 7 10 1 0
BITMAP
1C
38
00
7C
EE
EE
FE
E0
E0
7E
ENDCHAR
STARTCHAR char101
ENCODING 234
SWIDTH 785 0
DWIDTH 9 0
BBX 7 10 1 0
BITMAP
38
6C
00
7C
EE
EE
FE
E0
E0
7E
ENDCHAR
STARTCHAR char101
ENCODING 235
SWIDTH 785 0
DWIDTH 9 0
BBX 7 9 1 0
BITMAP
6C
00
7C
EE
EE
FE
E0
E0
7E
ENDCHAR
STARTCHAR char105
ENCODING 236
SWIDTH 349 0
DWIDTH 4 0
BBX 4 10 0 0
BITMAP
E0
70
00
70
70
70
70
70
70
70
ENDCHAR
STARTCHAR char105
ENCODING 237
SWIDTH 436 0
DWIDTH 5 0
BBX 4 10 1 0
BITMAP
70
E0
00
E0
E0
E0
E0
E0
E0
E0
ENDCHAR
STARTCHAR char105
ENCODING 238
SWIDTH 436 0
DWIDTH 5 0
BBX 5 10 0 0
BITMAP
70
D8
00
70
70
70
70
70
70
70
ENDCHAR
STARTCHAR char105
ENCODING 239
SWIDTH 610 0
DWIDTH 7 0
BBX 7 9 0 0
BITMAP
EE
00
38
38
38
38
38
38
38
ENDCHAR
STARTCHAR char246
ENCODING 240
SWIDTH 698 0
DWIDTH 8 0
BBX 6 7 1 0
BITMAP
74
18
78
FC
CC
FC
78
ENDCHAR
STARTCHAR char110
ENCODING 241
SWIDTH 785 0
DWIDTH 9 0
BBX 7 9 1 0
BITMAP
6C
D8
00
FC
EE
EE
EE
EE
EE
ENDCHAR
STARTCHAR char246
ENCODING 242
SWIDTH 785 0
DWIDTH 9 0
BBX 7 10 1 0
BITMAP
70
38
00
7C
EE
EE
EE
EE
EE
7C
ENDCHAR
STARTCHAR char246
ENCODING 243
SWIDTH 785 0
DWIDTH 9 0
BBX 7 10 1 0
BITMAP
1C
38
00
7C
EE
EE
EE
EE
EE
7C
ENDCHAR
STARTCHAR char246
ENCODING 244
SWIDTH 785 0
DWIDTH 9 0
BBX 7 10 1 0
BITMAP
38
6C
00
7C
EE
EE
EE
EE
EE
7C
ENDCHAR
STARTCHAR char214
ENCODING 245
SWIDTH 785 0
DWIDTH 9 0
BBX 7 10 1 0
BITMAP
36
6C
00
7C
EE
EE
EE
EE
EE
7C
ENDCHAR
STARTCHAR char246
ENCODING 246
SWIDTH 785 0
DWIDTH 9 0
BBX 7 9 1 0
BITMAP
EE
00
7C
EE
EE
EE
EE
EE
7C
ENDCHAR
STARTCHAR char247
ENCODING 247
SWIDTH 785 0
DWIDTH 9 0
BBX 7 7 2 1
BITMAP
38
38
00
FE
00
38
38
ENDCHAR
STARTCHAR char111
ENCODING 248
SWIDTH 698 0
DWIDTH 8 0
BBX 8 8 0 -1
BITMAP
03
3E
6E
5E
7A
76
7C
C0
ENDCHAR
STARTCHAR char117
ENCODING 249
SWIDTH 785 0
DWIDTH 9 0
BBX 7 9 1 0
BITMAP
70
38
EE
EE
EE
EE
EE
EE
7E
ENDCHAR
STARTCHAR char117
ENCODING 250
SWIDTH 785 0
DWIDTH 9 0
BBX 7 10 1 0
BITMAP
1C
38
00
EE
EE
EE
EE
EE
EE
7E
ENDCHAR
STARTCHAR char117
ENCODING 251
SWIDTH 785 0
DWIDTH 9 0
BBX 7 9 1 0
BITMAP
38
6C
00
EE
EE
EE
EE
EE
7E
ENDCHAR
STARTCHAR char117
ENCODING 252
SWIDTH 785 0
DWIDTH 9 0
BBX 7 9 1 0
BITMAP
66
00
EE
EE
EE
EE
EE
EE
7E
ENDCHAR
STARTCHAR char121
ENCODING 253
SWIDTH 785 0
DWIDTH 9 0
BBX 7 13 1 -3
BITMAP
1C
38
00
EE
EE
EE
EE
EE
EE
7E
0E
0E
7C
ENDCHAR
STARTCHAR char112
ENCODING 254
SWIDTH 785 0
DWIDTH 9 0
BBX 7 13 1 -3
BITMAP
E0
E0
E0
FC
EE
EE
EE
EE
EE
FC
E0
E0
E0
ENDCHAR
STARTCHAR char121
ENCODING 255
SWIDTH 785 0
DWIDTH 9 0
BBX 7 12 1 -3
BITMAP
66
00
EE
EE
EE
EE
EE
EE
7E
0E
0E
7C
ENDCHAR
ENDFONT
